<?xml version="1.0" standalone="no"?>
<!DOCTYPE svg PUBLIC "-//W3C//DTD SVG 20010904//EN"
 "http://www.w3.org/TR/2001/REC-SVG-20010904/DTD/svg10.dtd">
<svg version="1.0" xmlns="http://www.w3.org/2000/svg"
 width="512.000000pt" height="512.000000pt" viewBox="0 0 512.000000 512.000000"
 preserveAspectRatio="xMidYMid meet">
<metadata>
Created by potrace 1.16, written by Peter Selinger 2001-2019
</metadata>
<g transform="translate(0.000000,512.000000) scale(0.100000,-0.100000)"
fill="#000000" stroke="none">
<path d="M2428 4804 c-95 -23 -177 -70 -253 -148 -69 -70 -84 -96 -1034 -1829
-555 -1013 -972 -1784 -983 -1820 -31 -95 -29 -240 5 -335 14 -40 39 -95 57
-122 73 -114 222 -215 355 -240 43 -8 600 -10 2020 -8 l1960 3 67 26 c178 69
308 213 349 384 18 79 14 220 -9 292 -11 36 -420 793 -983 1820 -957 1746
-964 1759 -1035 1831 -109 109 -239 163 -392 161 -37 0 -93 -7 -124 -15z m253
-154 c69 -21 146 -74 190 -130 35 -45 1905 -3457 1935 -3530 31 -75 38 -135
25 -206 -25 -132 -108 -240 -229 -297 l-67 -32 -1975 0 -1975 0 -67 32 c-202
96 -292 338 -196 528 77 151 1906 3477 1928 3505 98 127 273 179 431 130z"/>
<path d="M2442 3435 c-53 -27 -83 -59 -118 -125 -18 -33 -19 -69 -19 -645 l0
-610 24 -47 c45 -93 125 -141 231 -141 106 0 186 48 231 141 l24 47 3 555 c2
305 0 583 -3 617 -9 83 -53 157 -119 198 -42 25 -61 30 -125 33 -66 3 -83 0
-129 -23z m153 -129 c19 -8 44 -30 55 -48 19 -32 20 -49 20 -591 0 -620 1
-610 -65 -641 -41 -20 -49 -20 -90 0 -66 31 -65 21 -65 641 0 542 1 559 20
591 11 18 35 39 53 47 40 18 32 18 72 1z"/>
<path d="M2501 1590 c-129 -27 -221 -141 -221 -275 0 -159 120 -278 280 -279
196 -1 329 187 264 376 -42 125 -188 205 -323 178z m114 -160 c72 -35 97 -117
55 -185 -21 -35 -73 -65 -110 -65 -37 0 -89 30 -110 65 -42 67 -16 153 55 186
51 23 60 23 110 -1z"/>
</g>
</svg>
